

<svg width="64" height="64" viewBox="0 0 64 64" fill="none" xmlns="http://www.w3.org/2000/svg">
<rect width="64" height="64" rx="5" fill="#C4C4C4"/>
<rect width="64" height="64" rx="5" fill="url(#paint0_linear)"/>
<path d="M30.6348 37.3906C30.6348 39.3594 29.7852 41.0527 28.0859 42.4707C26.3867 43.8887 24.1543 44.5977 21.3887 44.5977C18.7988 44.5977 16.7246 43.9473 15.166 42.6465C13.6074 41.3457 12.8281 39.6699 12.8281 37.6191C12.8281 36.1074 13.2852 34.8477 14.1992 33.8398C15.125 32.8203 16.4902 31.959 18.2949 31.2559C16.8066 30.4238 15.6934 29.5098 14.9551 28.5137C14.2168 27.5176 13.8477 26.3926 13.8477 25.1387C13.8477 23.2285 14.6562 21.6289 16.2734 20.3398C17.9023 19.0508 19.8477 18.4062 22.1094 18.4062C24.3711 18.4062 26.1992 19.0156 27.5938 20.2344C29 21.4531 29.7031 22.9824 29.7031 24.8223C29.7031 26.0059 29.3164 27.1309 28.543 28.1973C27.7695 29.252 26.6328 30.1191 25.1328 30.7988C27.0781 31.6309 28.4785 32.5508 29.334 33.5586C30.2012 34.5664 30.6348 35.8438 30.6348 37.3906ZM26.3809 24.6289C26.3809 23.1992 25.9531 22.0391 25.0977 21.1484C24.2539 20.2461 23.1699 19.7949 21.8457 19.7949C20.5215 19.7949 19.4375 20.2285 18.5938 21.0957C17.75 21.9512 17.3281 23.0176 17.3281 24.2949C17.3281 25.5254 17.8086 26.5684 18.7695 27.4238C19.7305 28.2793 21.4414 29.1934 23.9023 30.166C24.7812 29.6035 25.4141 28.8594 25.8008 27.9336C26.1875 27.0078 26.3809 25.9062 26.3809 24.6289ZM27.1191 38.2168C27.1191 37.4785 26.9609 36.834 26.6445 36.2832C26.3281 35.7207 25.8711 35.2109 25.2734 34.7539C24.6992 34.3086 23.8965 33.8457 22.8652 33.3652C21.8457 32.873 20.7383 32.375 19.543 31.8711C18.418 32.4805 17.5918 33.2598 17.0645 34.209C16.5371 35.1465 16.2734 36.2188 16.2734 37.4258C16.2734 39.1484 16.7773 40.543 17.7852 41.6094C18.8047 42.6641 20.1582 43.1914 21.8457 43.1914C23.4629 43.1914 24.7461 42.7227 25.6953 41.7852C26.6445 40.8477 27.1191 39.6582 27.1191 38.2168ZM51.763 34.9297C51.763 36.9688 51.4407 38.8906 50.7962 40.6953C50.1516 42.4883 49.2259 44.0645 48.0188 45.4238C46.8352 46.7598 45.388 47.8672 43.677 48.7461C41.9778 49.6367 40.0735 50.2227 37.9641 50.5039L37.6477 48.9219L39.2298 48.6406C41.7493 47.8438 43.718 46.6191 45.136 44.9668C46.554 43.3145 47.468 41.2168 47.8782 38.6738C46.9173 39.4941 45.9563 40.0977 44.9954 40.4844C44.0462 40.8594 42.9739 41.0469 41.7786 41.0469C39.8684 41.0469 38.2044 40.3027 36.7864 38.8145C35.3802 37.3262 34.677 35.4512 34.677 33.1895C34.677 30.7637 35.4915 28.7188 37.1204 27.0547C38.761 25.3906 40.7825 24.5586 43.1848 24.5586C45.7981 24.5586 47.8782 25.4902 49.4251 27.3535C50.9837 29.2168 51.763 31.7422 51.763 34.9297ZM48.0364 34.7188C48.0364 31.9766 47.5852 29.832 46.6829 28.2852C45.7923 26.7266 44.6145 25.9473 43.1497 25.9473C41.7552 25.9473 40.6302 26.5508 39.7747 27.7578C38.9192 28.9531 38.4915 30.6055 38.4915 32.7148C38.4915 34.6133 38.9251 36.1367 39.7923 37.2852C40.6712 38.4336 41.843 39.0078 43.3079 39.0078C44.222 39.0078 45.0598 38.8438 45.8216 38.5156C46.5833 38.1758 47.2923 37.6367 47.9485 36.8984C47.9485 36.8516 47.9544 36.7578 47.9661 36.6172C47.9895 36.4766 48.0012 36.2773 48.0012 36.0195C48.0012 35.8555 48.0071 35.6562 48.0188 35.4219C48.0305 35.1875 48.0364 34.9531 48.0364 34.7188Z" fill="white"/>
<defs>
<linearGradient id="paint0_linear" x1="0" y1="0" x2="64" y2="64" gradientUnits="userSpaceOnUse">
<stop stop-color="#C680C3"/>
<stop offset="1" stop-color="#5452BB"/>
</linearGradient>
</defs>
</svg>
